<svg xmlns="http://www.w3.org/2000/svg" viewBox="0 0 256 256">
  <defs>
    <linearGradient id="bg" x1="0%" y1="0%" x2="100%" y2="100%">
      <stop offset="0%" stop-color="#d3bb7c"/>
      <stop offset="100%" stop-color="#8c5a2a"/>
    </linearGradient>
    <linearGradient id="paper" x1="0%" y1="0%" x2="0%" y2="100%">
      <stop offset="0%" stop-color="#fff7db"/>
      <stop offset="100%" stop-color="#efe1b6"/>
    </linearGradient>
  </defs>

  <rect x="16" y="16" width="224" height="224" rx="40" fill="url(#bg)"/>
  <path
    d="M85 53.522
       L171 53.522
       L214 128
       L171 202.478
       L85 202.478
       L42 128
       Z"
    fill="url(#paper)"
    stroke="#3f2a18"
    stroke-width="8"
    stroke-linejoin="round"
  />

  <g transform="translate(128 128)">
    <circle r="44" fill="none" stroke="#8c5a2a" stroke-width="7"/>

    <path d="M0 -92L15 -16L0 -45L-15 -16Z" fill="#3f2a18"/>
    <path d="M76 -76L16 -6L24 -24L6 -16Z" fill="#8c5a2a"/>
    <path d="M92 0L16 15L45 0L16 -15Z" fill="#3f2a18"/>
    <path d="M76 76L6 16L24 24L16 6Z" fill="#8c5a2a"/>
    <path d="M0 92L-15 16L0 45L15 16Z" fill="#3f2a18"/>
    <path d="M-76 76L-16 6L-24 24L-6 16Z" fill="#8c5a2a"/>
    <path d="M-92 0L-16 -15L-45 0L-16 15Z" fill="#3f2a18"/>
    <path d="M-76 -76L-6 -16L-24 -24L-16 -6Z" fill="#8c5a2a"/>

    <circle r="7" fill="#3f2a18"/>
  </g>
</svg>
