<svg xmlns="http://www.w3.org/2000/svg" viewBox="0 0 256 256">
  <defs>
    <linearGradient id="bg" x1="0%" y1="0%" x2="100%" y2="100%">
      <stop offset="0%" stop-color="#d3bb7c"/>
      <stop offset="100%" stop-color="#8c5a2a"/>
    </linearGradient>
    <linearGradient id="paper" x1="0%" y1="0%" x2="0%" y2="100%">
      <stop offset="0%" stop-color="#fff7db"/>
      <stop offset="100%" stop-color="#efe1b6"/>
    </linearGradient>
  </defs>

  <rect x="16" y="16" width="224" height="224" rx="40" fill="url(#bg)"/>
  <path
    d="M92 65.646
       L164 65.646
       L200 128
       L164 190.354
       L92 190.354
       L56 128
       Z"
    fill="url(#paper)"
    stroke="#3f2a18"
    stroke-width="8"
    stroke-linejoin="round"
  />

  <path
    d="M106 90.761
       L150 90.761
       L172 128
       L150 165.239
       L106 165.239
       L84 128
       Z"
    fill="none"
    stroke="#d3bb7c"
    stroke-width="5"
    stroke-linejoin="round"
  />

  <g transform="translate(128 128)">
    <circle r="36" fill="none" stroke="#8c5a2a" stroke-width="6"/>

    <path d="M0 -48L10 -11L0 -24L-10 -11Z" fill="#3f2a18"/>
    <path d="M48 0L11 10L24 0L11 -10Z" fill="#3f2a18"/>
    <path d="M0 48L-10 11L0 24L10 11Z" fill="#8c5a2a"/>
    <path d="M-48 0L-11 -10L-24 0L-11 10Z" fill="#8c5a2a"/>

    <path d="M34 -34L8 -3L11 -11L3 -8Z" fill="#d3bb7c"/>
    <path d="M34 34L3 8L11 11L8 3Z" fill="#d3bb7c"/>
    <path d="M-34 34L-8 3L-11 11L-3 8Z" fill="#d3bb7c"/>
    <path d="M-34 -34L-3 -8L-11 -11L-8 -3Z" fill="#d3bb7c"/>

    <circle r="6" fill="#3f2a18"/>
  </g>
</svg>
