<svg xmlns="http://www.w3.org/2000/svg" viewBox="0 0 256 256">
  <defs>
    <linearGradient id="bg" x1="0%" y1="0%" x2="100%" y2="100%">
      <stop offset="0%" stop-color="#ecd9aa"/>
      <stop offset="100%" stop-color="#7a4d27"/>
    </linearGradient>
    <linearGradient id="paper" x1="0%" y1="0%" x2="0%" y2="100%">
      <stop offset="0%" stop-color="#fffdf6"/>
      <stop offset="100%" stop-color="#e6cea0"/>
    </linearGradient>
  </defs>

  <rect x="16" y="16" width="224" height="224" rx="40" fill="url(#bg)"/>
  <path
    d="M85 53.522
       L171 53.522
       L214 128
       L171 202.478
       L85 202.478
       L42 128
       Z"
    fill="url(#paper)"
    stroke="#b48961"
    stroke-width="6"
    stroke-linejoin="round"
  />

  <g transform="translate(128 128)">
    <path d="M0 -102L18 -18L0 -34L-18 -18Z" fill="#0f0501"/>
    <path d="M74 -74L24 -10L18 -18L10 -24Z" fill="#341b0e"/>
    <path d="M102 0L18 18L34 0L18 -18Z" fill="#0f0501"/>
    <path d="M74 74L10 24L18 18L24 10Z" fill="#341b0e"/>
    <path d="M0 102L-18 18L0 34L18 18Z" fill="#0f0501"/>
    <path d="M-74 74L-24 10L-18 18L-10 24Z" fill="#341b0e"/>
    <path d="M-102 0L-18 -18L-34 0L-18 18Z" fill="#0f0501"/>
    <path d="M-74 -74L-10 -24L-18 -18L-24 -10Z" fill="#341b0e"/>

    <circle r="5" fill="#080300"/>
  </g>
</svg>
