<svg xmlns="http://www.w3.org/2000/svg" viewBox="0 0 256 256">
  <defs>
    <linearGradient id="bg" x1="0%" y1="0%" x2="100%" y2="100%">
      <stop offset="0%" stop-color="#d3bb7c"/>
      <stop offset="100%" stop-color="#8c5a2a"/>
    </linearGradient>
    <linearGradient id="paper" x1="0%" y1="0%" x2="0%" y2="100%">
      <stop offset="0%" stop-color="#fff7db"/>
      <stop offset="100%" stop-color="#efe1b6"/>
    </linearGradient>
  </defs>

  <rect x="16" y="16" width="224" height="224" rx="40" fill="url(#bg)"/>
  <path
    d="M92 65.646
       L164 65.646
       L200 128
       L164 190.354
       L92 190.354
       L56 128
       Z"
    fill="url(#paper)"
    stroke="#3f2a18"
    stroke-width="8"
    stroke-linejoin="round"
  />

  <path
    d="M104 87.297
       L152 87.297
       L176 128
       L152 168.703
       L104 168.703
       L80 128
       Z"
    fill="none"
    stroke="#d3bb7c"
    stroke-width="5"
    stroke-linejoin="round"
    stroke-dasharray="10 8"
  />

  <g transform="translate(128 128)">
    <circle r="34" fill="none" stroke="#8c5a2a" stroke-width="6"/>

    <path d="M0 -46L9 -10L0 -22L-9 -10Z" fill="#3f2a18"/>
    <path d="M46 0L10 9L22 0L10 -9Z" fill="#3f2a18"/>
    <path d="M0 46L-9 10L0 22L9 10Z" fill="#3f2a18"/>
    <path d="M-46 0L-10 -9L-22 0L-10 9Z" fill="#3f2a18"/>

    <path d="M36 -36L9 -3L12 -12L3 -9Z" fill="#8c5a2a"/>
    <path d="M36 36L3 9L12 12L9 3Z" fill="#8c5a2a"/>
    <path d="M-36 36L-9 3L-12 12L-3 9Z" fill="#8c5a2a"/>
    <path d="M-36 -36L-3 -9L-12 -12L-9 -3Z" fill="#8c5a2a"/>

    <circle r="5" fill="#3f2a18"/>
  </g>
</svg>
