<svg xmlns="http://www.w3.org/2000/svg" viewBox="0 0 256 256">
  <defs>
    <linearGradient id="bg" x1="0%" y1="0%" x2="100%" y2="100%">
      <stop offset="0%" stop-color="#c9a86f"/>
      <stop offset="100%" stop-color="#643516"/>
    </linearGradient>
    <linearGradient id="paper" x1="0%" y1="0%" x2="0%" y2="100%">
      <stop offset="0%" stop-color="#f3e7cf"/>
      <stop offset="100%" stop-color="#d6bc87"/>
    </linearGradient>
  </defs>

  <rect x="16" y="16" width="224" height="224" rx="40" fill="url(#bg)"/>
  <path
    d="M85 53.522
       L171 53.522
       L214 128
       L171 202.478
       L85 202.478
       L42 128
       Z"
    fill="url(#paper)"
    stroke="#2f180b"
    stroke-width="9"
    stroke-linejoin="round"
  />

  <g transform="translate(128 128)">
    <circle r="44" fill="none" stroke="#76431f" stroke-width="8"/>

    <path d="M0 -102L16 -18L0 -50L-16 -18Z" fill="#2f190c"/>
    <path d="M84 -84L18 -6L26 -26L6 -18Z" fill="#cfa24a"/>
    <path d="M102 0L18 16L50 0L18 -16Z" fill="#2f190c"/>
    <path d="M84 84L6 18L26 26L18 6Z" fill="#cfa24a"/>
    <path d="M0 102L-16 18L0 50L16 18Z" fill="#2f190c"/>
    <path d="M-84 84L-18 6L-26 26L-6 18Z" fill="#cfa24a"/>
    <path d="M-102 0L-18 -16L-50 0L-18 16Z" fill="#2f190c"/>
    <path d="M-84 -84L-6 -18L-26 -26L-18 -6Z" fill="#cfa24a"/>

    <circle r="7" fill="#241006"/>
  </g>
</svg>
