<svg xmlns="http://www.w3.org/2000/svg" viewBox="0 0 256 256">
  <defs>
    <linearGradient id="bg" x1="0%" y1="0%" x2="100%" y2="100%">
      <stop offset="0%" stop-color="#d3bb7c"/>
      <stop offset="100%" stop-color="#8c5a2a"/>
    </linearGradient>
    <linearGradient id="paper" x1="0%" y1="0%" x2="0%" y2="100%">
      <stop offset="0%" stop-color="#fff7db"/>
      <stop offset="100%" stop-color="#efe1b6"/>
    </linearGradient>
  </defs>

  <rect x="16" y="16" width="224" height="224" rx="40" fill="url(#bg)"/>
  <path
    d="M85 53.522
       L171 53.522
       L214 128
       L171 202.478
       L85 202.478
       L42 128
       Z"
    fill="url(#paper)"
    stroke="#3f2a18"
    stroke-width="8"
    stroke-linejoin="round"
  />

  <g transform="translate(128 128)">
    <circle r="44" fill="none" stroke="#8c5a2a" stroke-width="7"/>

    <path d="M0 -82L14 -15L0 -40L-14 -15Z" fill="#3f2a18"/>
    <path d="M68 -68L15 -5L22 -22L5 -15Z" fill="#8c5a2a"/>
    <path d="M82 0L15 14L40 0L15 -14Z" fill="#3f2a18"/>
    <path d="M68 68L5 15L22 22L15 5Z" fill="#8c5a2a"/>
    <path d="M0 82L-14 15L0 40L14 15Z" fill="#3f2a18"/>
    <path d="M-68 68L-15 5L-22 22L-5 15Z" fill="#8c5a2a"/>
    <path d="M-82 0L-15 -14L-40 0L-15 14Z" fill="#3f2a18"/>
    <path d="M-68 -68L-5 -15L-22 -22L-15 -5Z" fill="#8c5a2a"/>

    <circle r="7" fill="#3f2a18"/>
  </g>
</svg>
