<svg xmlns="http://www.w3.org/2000/svg" viewBox="0 0 256 256">
  <defs>
    <linearGradient id="bg" x1="0%" y1="0%" x2="100%" y2="100%">
      <stop offset="0%" stop-color="#d3bb7c"/>
      <stop offset="100%" stop-color="#8c5a2a"/>
    </linearGradient>
    <linearGradient id="paper" x1="0%" y1="0%" x2="0%" y2="100%">
      <stop offset="0%" stop-color="#fff7db"/>
      <stop offset="100%" stop-color="#efe1b6"/>
    </linearGradient>
  </defs>

  <rect x="16" y="16" width="224" height="224" rx="40" fill="url(#bg)"/>
  <path
    d="M88 58.718
       L168 58.718
       L208 128
       L168 197.282
       L88 197.282
       L48 128
       Z"
    fill="url(#paper)"
    stroke="#3f2a18"
    stroke-width="8"
    stroke-linejoin="round"
  />

  <g stroke-linejoin="round" stroke-linecap="round">
    <path d="M128 72L128 184" stroke="#8c5a2a" stroke-width="7"/>
    <path d="M72 128L184 128" stroke="#8c5a2a" stroke-width="7"/>
    <path d="M88 88L168 168" stroke="#d3bb7c" stroke-width="5"/>
    <path d="M168 88L88 168" stroke="#d3bb7c" stroke-width="5"/>
  </g>

  <g transform="translate(128 128)">
    <path d="M0 -50L12 -8L0 -20L-12 -8Z" fill="#3f2a18"/>
    <path d="M50 0L8 12L20 0L8 -12Z" fill="#3f2a18"/>
    <path d="M0 50L-12 8L0 20L12 8Z" fill="#8c5a2a"/>
    <path d="M-50 0L-8 -12L-20 0L-8 12Z" fill="#8c5a2a"/>
    <circle r="10" fill="#fff7db" stroke="#3f2a18" stroke-width="6"/>
  </g>
</svg>
