<svg xmlns="http://www.w3.org/2000/svg" viewBox="0 0 256 256">
  <defs>
    <linearGradient id="bg" x1="0%" y1="0%" x2="100%" y2="100%">
      <stop offset="0%" stop-color="#d3bb7c"/>
      <stop offset="100%" stop-color="#8c5a2a"/>
    </linearGradient>
    <linearGradient id="paper" x1="0%" y1="0%" x2="0%" y2="100%">
      <stop offset="0%" stop-color="#fff7db"/>
      <stop offset="100%" stop-color="#efe1b6"/>
    </linearGradient>
  </defs>

  <rect x="16" y="16" width="224" height="224" rx="40" fill="url(#bg)"/>
  <path
    d="M85 53.522
       L171 53.522
       L214 128
       L171 202.478
       L85 202.478
       L42 128
       Z"
    fill="url(#paper)"
    stroke="#3f2a18"
    stroke-width="8"
    stroke-linejoin="round"
  />

  <g transform="translate(128 128)">
    <circle r="44" fill="none" stroke="#8c5a2a" stroke-width="7"/>

    <path d="M0 -72L13 -14L0 -36L-13 -14Z" fill="#3f2a18"/>
    <path d="M60 -60L14 -5L20 -20L5 -14Z" fill="#8c5a2a"/>
    <path d="M72 0L14 13L36 0L14 -13Z" fill="#3f2a18"/>
    <path d="M60 60L5 14L20 20L14 5Z" fill="#8c5a2a"/>
    <path d="M0 72L-13 14L0 36L13 14Z" fill="#3f2a18"/>
    <path d="M-60 60L-14 5L-20 20L-5 14Z" fill="#8c5a2a"/>
    <path d="M-72 0L-14 -13L-36 0L-14 13Z" fill="#3f2a18"/>
    <path d="M-60 -60L-5 -14L-20 -20L-14 -5Z" fill="#8c5a2a"/>

    <circle r="7" fill="#3f2a18"/>
  </g>
</svg>
