<svg xmlns="http://www.w3.org/2000/svg" viewBox="0 0 256 256">
  <defs>
    <linearGradient id="bg" x1="0%" y1="0%" x2="100%" y2="100%">
      <stop offset="0%" stop-color="#d3bb7c"/>
      <stop offset="100%" stop-color="#8c5a2a"/>
    </linearGradient>
    <linearGradient id="paper" x1="0%" y1="0%" x2="0%" y2="100%">
      <stop offset="0%" stop-color="#fff7db"/>
      <stop offset="100%" stop-color="#efe1b6"/>
    </linearGradient>
  </defs>

  <rect x="16" y="16" width="224" height="224" rx="40" fill="url(#bg)"/>
  <path
    d="M92 65.646
       L164 65.646
       L200 128
       L164 190.354
       L92 190.354
       L56 128
       Z"
    fill="url(#paper)"
    stroke="#3f2a18"
    stroke-width="10"
    stroke-linejoin="round"
  />

  <g transform="translate(128 128)">
    <path d="M0 -58L8 -10L0 -22L-8 -10Z" fill="#3f2a18"/>
    <path d="M58 0L10 8L22 0L10 -8Z" fill="#8c5a2a"/>
    <path d="M0 58L-8 10L0 22L8 10Z" fill="#3f2a18"/>
    <path d="M-58 0L-10 -8L-22 0L-10 8Z" fill="#8c5a2a"/>

    <path d="M0 -44L5 -8L0 -16L-5 -8Z" fill="#d3bb7c"/>
    <path d="M44 0L8 5L16 0L8 -5Z" fill="#d3bb7c"/>
    <path d="M0 44L-5 8L0 16L5 8Z" fill="#d3bb7c"/>
    <path d="M-44 0L-8 -5L-16 0L-8 5Z" fill="#d3bb7c"/>

    <circle r="20" fill="none" stroke="#8c5a2a" stroke-width="7"/>
    <circle r="7" fill="#3f2a18"/>
  </g>
</svg>
