<svg xmlns="http://www.w3.org/2000/svg" viewBox="0 0 256 256">
  <defs>
    <linearGradient id="bg" x1="0%" y1="0%" x2="100%" y2="100%">
      <stop offset="0%" stop-color="#d3bb7c"/>
      <stop offset="100%" stop-color="#8c5a2a"/>
    </linearGradient>
    <linearGradient id="paper" x1="0%" y1="0%" x2="0%" y2="100%">
      <stop offset="0%" stop-color="#fff7db"/>
      <stop offset="100%" stop-color="#efe1b6"/>
    </linearGradient>
  </defs>

  <rect x="16" y="16" width="224" height="224" rx="40" fill="url(#bg)"/>
  <path
    d="M88 58.718
       L168 58.718
       L208 128
       L168 197.282
       L88 197.282
       L48 128
       Z"
    fill="url(#paper)"
    stroke="#3f2a18"
    stroke-width="8"
    stroke-linejoin="round"
  />

  <g transform="translate(128 128)">
    <circle r="46" fill="none" stroke="#8c5a2a" stroke-width="8"/>
    <circle r="28" fill="none" stroke="#d3bb7c" stroke-width="6"/>

    <path d="M0 -54L10 -14L0 -30L-10 -14Z" fill="#3f2a18"/>
    <path d="M54 0L14 10L30 0L14 -10Z" fill="#8c5a2a"/>
    <path d="M0 54L-10 14L0 30L10 14Z" fill="#8c5a2a"/>
    <path d="M-54 0L-14 -10L-30 0L-14 10Z" fill="#3f2a18"/>

    <path d="M0 -36L6 -7L0 -16L-6 -7Z" fill="#3f2a18"/>
    <path d="M36 0L7 6L16 0L7 -6Z" fill="#8c5a2a"/>
    <path d="M0 36L-6 7L0 16L6 7Z" fill="#8c5a2a"/>
    <path d="M-36 0L-7 -6L-16 0L-7 6Z" fill="#3f2a18"/>

    <circle r="7" fill="#3f2a18"/>
  </g>
</svg>
