<svg xmlns="http://www.w3.org/2000/svg" viewBox="0 0 256 256">
  <defs>
    <linearGradient id="bg" x1="0%" y1="0%" x2="100%" y2="100%">
      <stop offset="0%" stop-color="#ecd9aa"/>
      <stop offset="100%" stop-color="#7a4d27"/>
    </linearGradient>
    <linearGradient id="paper" x1="0%" y1="0%" x2="0%" y2="100%">
      <stop offset="0%" stop-color="#fffdf6"/>
      <stop offset="100%" stop-color="#e6cea0"/>
    </linearGradient>
  </defs>

  <rect x="16" y="16" width="224" height="224" rx="40" fill="url(#bg)"/>
  <path
    d="M85 53.522
       L171 53.522
       L214 128
       L171 202.478
       L85 202.478
       L42 128
       Z"
    fill="url(#paper)"
    stroke="#b48961"
    stroke-width="6"
    stroke-linejoin="round"
  />

  <g transform="translate(128 128)">
    <circle r="18" fill="none" stroke="#432613" stroke-width="5"/>

    <path d="M0 -102L16 -16L0 -40L-16 -16Z" fill="#0f0501"/>
    <path d="M76 -76L18 -6L18 -18L6 -18Z" fill="#341b0e"/>
    <path d="M102 0L16 16L40 0L16 -16Z" fill="#0f0501"/>
    <path d="M76 76L6 18L18 18L18 6Z" fill="#341b0e"/>
    <path d="M0 102L-16 16L0 40L16 16Z" fill="#0f0501"/>
    <path d="M-76 76L-18 6L-18 18L-6 18Z" fill="#341b0e"/>
    <path d="M-102 0L-16 -16L-40 0L-16 16Z" fill="#0f0501"/>
    <path d="M-76 -76L-6 -18L-18 -18L-18 -6Z" fill="#341b0e"/>

    <circle r="6" fill="#080300"/>
  </g>
</svg>
