<svg xmlns="http://www.w3.org/2000/svg" viewBox="0 0 256 256">
  <defs>
    <linearGradient id="bg" x1="0%" y1="0%" x2="100%" y2="100%">
      <stop offset="0%" stop-color="#ecd9aa"/>
      <stop offset="100%" stop-color="#7a4d27"/>
    </linearGradient>
    <linearGradient id="paper" x1="0%" y1="0%" x2="0%" y2="100%">
      <stop offset="0%" stop-color="#fffdf6"/>
      <stop offset="100%" stop-color="#e6cea0"/>
    </linearGradient>
  </defs>

  <rect x="16" y="16" width="224" height="224" rx="40" fill="url(#bg)"/>
  <path
    d="M85 53.522
       L171 53.522
       L214 128
       L171 202.478
       L85 202.478
       L42 128
       Z"
    fill="url(#paper)"
    stroke="#4a2d18"
    stroke-width="6"
    stroke-linejoin="round"
  />

  <g transform="translate(128 128)">
    <circle r="22" fill="none" stroke="#432613" stroke-width="6"/>

    <path d="M0 -102L16 -16L0 -50L-16 -16Z" fill="#0f0501"/>
    <path d="M84 -84L16 -4L24 -24L4 -16Z" fill="#341b0e"/>
    <path d="M102 0L16 16L50 0L16 -16Z" fill="#0f0501"/>
    <path d="M84 84L4 16L24 24L16 4Z" fill="#341b0e"/>
    <path d="M0 102L-16 16L0 50L16 16Z" fill="#0f0501"/>
    <path d="M-84 84L-16 4L-24 24L-4 16Z" fill="#341b0e"/>
    <path d="M-102 0L-16 -16L-50 0L-16 16Z" fill="#0f0501"/>
    <path d="M-84 -84L-4 -16L-24 -24L-16 -4Z" fill="#341b0e"/>

    <circle r="7" fill="#080300"/>
  </g>
</svg>
